<svg id="Layer_1" data-name="Layer 1" xmlns="http://www.w3.org/2000/svg" viewBox="0 0 145.22 116.9"><defs><style>.cls-1{fill:#d7172f;}.cls-2{fill:#0f437f;}</style></defs><title>download (1)</title><path class="cls-1" d="M82.53,13.4c2.26-2,8-3.53,15.07-3.44,17.94,0,32.48,13.49,32.48,30.13a15.91,15.91,0,0,1-.07,1.83,35.65,35.65,0,0,1-2.59,11.74h8.3a47.45,47.45,0,0,0,2.75-14c0-.75.07-1.51,0.07-2.27A37.33,37.33,0,0,0,101.27,0h0C91.13,0,87.54.56,80.41,6.1Z" transform="translate(-2.31 0.01)"/><path class="cls-1" d="M125.11,59.06C115.63,77.92,94.2,99.4,74.42,108.5c-22.9-11.64-46-34.17-53.58-57a11.43,11.43,0,0,1-.61-1.89H12.52A14.48,14.48,0,0,0,13,51.46c8.72,28.26,35.15,51,61.47,65.43,23.31-11.56,48.72-33.8,59.16-57.85H125.1v0Z" transform="translate(-2.31 0.01)"/><path class="cls-1" d="M18.69,43.92a28.07,28.07,0,0,1-.27-3.82C18.42,23.46,33,10,50.9,10a34.13,34.13,0,0,1,17.6,4.82l0.6-7.94A37.31,37.31,0,0,0,10.83,43.92h7.86Z" transform="translate(-2.31 0.01)"/><path class="cls-2" d="M2.31,53.24c3.08,0,32.19,0,35.53-.09,2.72,0,4.14-.49,5.89-2.05s3.32-3.46,4.76-4.68c2.25-1.83,4.44-1.59,5.3,1.05,1.73,5.2,4.85,17.07,7.6,40.36,1.33,9.54,6.85,13.05,8.48.76,1.79-21.16,6.73-68.75,6.73-68.75,0.59-4.93,1.08-11.5,1.83-5.75S83,49.6,86.34,63.37c3.42,12.33,9.08,10.41,11.46,3.5,2.28-7.94,3.33-14.25,4.75-18.5,0.79-3.67,2.76-5.82,6.5-1.91,4.29,4,5,7,14.1,7.27,6.45-.18,22.19-0.1,22.19-0.1l2.19-4H121c-3.37,0-4.87-1.76-6.66-4.05-2.42-2.67-5.87-5.71-9.33-5.67-5.5.65-6.1,6-8,14.27C96.53,56.6,94.88,63.75,94.5,65c-1.06,3.68-3.21,2.52-4.08-1.19-1.67-7.5-5.67-32.75-7.12-45.58C81.72,6.53,77.91-2.63,74.51,6.4c-2.84,14.8-4,26-5.94,45.69-0.19,2.93-2,23.06-2.06,26.1,0,3.5-1.1,9.79-2.42-1.46C63,65.06,60.47,53.48,57.6,45.88,55.9,42,52.32,40.33,48,42.15c-3,1.42-6.7,7-8,7.26-0.93.33-12.9,0.23-11.14,0.23H3.54C3.17,50.57,2.31,53.24,2.31,53.24Z" transform="translate(-2.31 0.01)"/></svg>